<?xml version="1.0" encoding="UTF-8" standalone="no"?>
<!-- Created with Inkscape (http://www.inkscape.org/) -->

<svg
   xmlns:dc="http://purl.org/dc/elements/1.1/"
   xmlns:cc="http://creativecommons.org/ns#"
   xmlns:rdf="http://www.w3.org/1999/02/22-rdf-syntax-ns#"
   xmlns:svg="http://www.w3.org/2000/svg"
   xmlns="http://www.w3.org/2000/svg"
   xmlns:sodipodi="http://sodipodi.sourceforge.net/DTD/sodipodi-0.dtd"
   xmlns:inkscape="http://www.inkscape.org/namespaces/inkscape"
   width="36.091743mm"
   height="40.708263mm"
   viewBox="0 0 36.091743 40.708263"
   version="1.1"
   id="svg8"
   inkscape:version="0.92.2 (5c3e80d, 2017-08-06)"
   sodipodi:docname="vks.svg"
   inkscape:export-filename="C:\Users\Saskia\Nextcloud\Programming\Webprojects\vollkornsaskia\blog\static\blog\lfavicon.png"
   inkscape:export-xdpi="84.233513"
   inkscape:export-ydpi="84.233513">
  <defs
     id="defs2" />
  <sodipodi:namedview
     id="base"
     pagecolor="#ffffff"
     bordercolor="#666666"
     borderopacity="1.0"
     inkscape:pageopacity="0.0"
     inkscape:pageshadow="2"
     inkscape:zoom="5.6"
     inkscape:cx="1.5564821"
     inkscape:cy="81.122254"
     inkscape:document-units="mm"
     inkscape:current-layer="layer2"
     showgrid="false"
     inkscape:window-width="3840"
     inkscape:window-height="2066"
     inkscape:window-x="-11"
     inkscape:window-y="-11"
     inkscape:window-maximized="1" />
  <metadata
     id="metadata5">
    <rdf:RDF>
      <cc:Work
         rdf:about="">
        <dc:format>image/svg+xml</dc:format>
        <dc:type
           rdf:resource="http://purl.org/dc/dcmitype/StillImage" />
        <dc:title />
      </cc:Work>
    </rdf:RDF>
  </metadata>
  <g
     inkscape:groupmode="layer"
     id="layer2"
     inkscape:label="Circle"
     transform="translate(-91.784129,-126.29338)">
    <circle
       style="fill:none;fill-opacity:1;stroke:#000000;stroke-width:2.1481061;stroke-miterlimit:4;stroke-dasharray:none;stroke-opacity:1"
       id="path4789"
       cx="110.01392"
       cy="143.79338"
       r="16.425947" />
  </g>
  <g
     inkscape:label="Layer 1"
     inkscape:groupmode="layer"
     id="layer1"
     transform="translate(-91.784129,-126.29338)">
    <path
       style="fill:#ffffff;fill-opacity:1;stroke:#000000;stroke-width:0.26458332px;stroke-linecap:butt;stroke-linejoin:miter;stroke-opacity:1"
       d="m 91.913335,129.49187 c 3.19235,1.65731 2.715139,3.20511 2.715139,3.20511 -1.78948,-0.21364 -2.362828,-1.60256 -2.715139,-3.20511"
       id="path4537"
       inkscape:connector-curvature="0"
       sodipodi:nodetypes="ccc" />
    <path
       style="fill:#ffffff;fill-opacity:1;stroke:#000000;stroke-width:0.26458332px;stroke-linecap:butt;stroke-linejoin:miter;stroke-opacity:1"
       d="m 108.21419,152.22548 c 0.42868,-1.46485 0.93366,-2.9173 0.51208,-4.51986 0,0 -1.09481,0.80416 -1.3353,1.66208 -0.24051,0.8579 0.82322,2.85778 0.82322,2.85778 z"
       id="path4539"
       inkscape:connector-curvature="0"
       sodipodi:nodetypes="ccsc" />
    <path
       style="fill:#ffffff;fill-opacity:1;stroke:#000000;stroke-width:0.26458332px;stroke-linecap:butt;stroke-linejoin:miter;stroke-opacity:1"
       d="m 107.27674,150.96109 c 1.07233,-2.5309 1.02999,-5.02464 0.34527,-5.79696 0,0 -1.25155,1.14955 -1.36955,2.24273 -0.096,0.89033 1.02428,3.55423 1.02428,3.55423 z"
       id="path4539-6"
       inkscape:connector-curvature="0"
       sodipodi:nodetypes="ccsc" />
    <path
       style="fill:#ffffff;fill-opacity:1;stroke:#000000;stroke-width:0.26458332px;stroke-linecap:butt;stroke-linejoin:miter;stroke-opacity:1"
       d="m 106.04853,147.29459 c 1.05469,-2.5338 0.0434,-5.42588 -0.62832,-6.19606 0,0 -1.06886,1.96441 -0.87012,3.02384 0.41623,2.21868 1.49844,3.17222 1.49844,3.17222 z"
       id="path4539-6-8"
       inkscape:connector-curvature="0"
       sodipodi:nodetypes="ccsc" />
    <path
       style="fill:#ffffff;fill-opacity:1;stroke:#000000;stroke-width:0.26458332px;stroke-linecap:butt;stroke-linejoin:miter;stroke-opacity:1"
       d="m 104.38427,144.22832 c 0.71467,-3.30005 -1.01207,-4.85302 -1.6557,-5.55994 0,0 -0.67783,1.73752 -0.47907,2.79694 0.41621,2.2187 2.13477,2.763 2.13477,2.763 z"
       id="path4539-6-8-1"
       inkscape:connector-curvature="0"
       sodipodi:nodetypes="ccsc" />
    <path
       style="fill:#ffffff;fill-opacity:1;stroke:#000000;stroke-width:0.26458332px;stroke-linecap:butt;stroke-linejoin:miter;stroke-opacity:1"
       d="m 102.15366,140.70778 c 0.71466,-3.30006 -1.53509,-4.20272 -2.178718,-4.90965 0.08635,-0.37257 -0.250122,1.79045 -0.05135,2.8499 0.416218,2.21868 2.230088,2.05977 2.230088,2.05977 z"
       id="path4539-6-8-1-2"
       inkscape:connector-curvature="0"
       sodipodi:nodetypes="ccsc" />
    <path
       style="fill:#ffffff;fill-opacity:1;stroke:#000000;stroke-width:0.26458332px;stroke-linecap:butt;stroke-linejoin:miter;stroke-opacity:1"
       d="m 99.659012,138.07587 c 0.714658,-3.30007 -1.535087,-4.20273 -2.178716,-4.90965 0.08635,-0.37258 -0.250135,1.79047 -0.05134,2.8499 0.416213,2.21868 2.230079,2.05978 2.230079,2.05978 z"
       id="path4539-6-8-1-2-7"
       inkscape:connector-curvature="0"
       sodipodi:nodetypes="ccsc" />
    <path
       style="fill:#ffffff;fill-opacity:1;stroke:#000000;stroke-width:0.26458332px;stroke-linecap:butt;stroke-linejoin:miter;stroke-opacity:1"
       d="m 97.364304,134.39665 c -1.050695,-3.22533 -2.016468,-2.84316 -2.593761,-3.55706 0.08635,-0.37256 -0.19023,1.167 0.0085,2.22645 0.416215,2.21868 2.58525,1.33061 2.58525,1.33061 z"
       id="path4539-6-8-1-2-7-1"
       inkscape:connector-curvature="0"
       sodipodi:nodetypes="ccsc" />
    <path
       style="fill:#ffffff;fill-opacity:1;stroke:#000000;stroke-width:0.26458332px;stroke-linecap:butt;stroke-linejoin:miter;stroke-opacity:1"
       d="m 94.11061,132.40816 c 2.820153,1.43821 3.229685,1.75092 3.153532,3.43096 -1.789478,-0.21363 -2.801174,-1.82849 -3.153532,-3.43096"
       id="path4537-0"
       inkscape:connector-curvature="0"
       sodipodi:nodetypes="ccc" />
    <path
       style="fill:#ffffff;fill-opacity:1;stroke:#000000;stroke-width:0.26458332px;stroke-linecap:butt;stroke-linejoin:miter;stroke-opacity:1"
       d="m 96.511161,135.6464 c 3.244857,1.02243 3.561369,1.42618 3.153526,3.43097 -1.789478,-0.21364 -2.801176,-1.82848 -3.153526,-3.43097"
       id="path4537-0-3"
       inkscape:connector-curvature="0"
       sodipodi:nodetypes="ccc" />
    <path
       style="fill:#ffffff;fill-opacity:1;stroke:#000000;stroke-width:0.26458332px;stroke-linecap:butt;stroke-linejoin:miter;stroke-opacity:1"
       d="m 99.26421,138.79432 c 2.21014,0.88562 3.23161,1.38261 3.15354,3.43096 -2.698578,0.61614 -2.91652,-1.7232 -3.15354,-3.43096"
       id="path4537-0-3-2"
       inkscape:connector-curvature="0"
       sodipodi:nodetypes="ccc" />
    <path
       style="fill:#ffffff;fill-opacity:1;stroke:#000000;stroke-width:0.26458332px;stroke-linecap:butt;stroke-linejoin:miter;stroke-opacity:1"
       d="m 100.92159,141.88559 c 1.97067,0.67085 4.02423,1.83054 4.07256,3.99231 -3.45797,-0.4391 -3.84186,-2.29321 -4.07256,-3.99231"
       id="path4537-0-3-2-4"
       inkscape:connector-curvature="0"
       sodipodi:nodetypes="ccc" />
    <path
       style="fill:#ffffff;fill-opacity:1;stroke:#000000;stroke-width:0.26458332px;stroke-linecap:butt;stroke-linejoin:miter;stroke-opacity:1"
       d="m 102.41741,144.62712 c 1.97068,0.67086 4.51887,2.83584 4.56725,4.99757 -3.27715,-1.21922 -4.30452,-3.43658 -4.56725,-4.99757"
       id="path4537-0-3-2-4-0"
       inkscape:connector-curvature="0"
       sodipodi:nodetypes="ccc" />
    <path
       style="fill:#ffffff;fill-opacity:1;stroke:#000000;stroke-width:0.26458332px;stroke-linecap:butt;stroke-linejoin:miter;stroke-opacity:1"
       d="m 104.59991,148.60007 c 1.97068,0.67085 2.97477,1.24783 3.02314,3.40959 -2.8556,-0.88262 -2.55028,-1.68081 -3.02314,-3.40959"
       id="path4537-0-3-2-4-0-0"
       inkscape:connector-curvature="0"
       sodipodi:nodetypes="ccc" />
    <path
       style="fill:#ffffff;fill-opacity:1;stroke:#000000;stroke-width:0.26458332px;stroke-linecap:butt;stroke-linejoin:miter;stroke-opacity:1"
       d="m 107.48147,150.40596 c 3.8882,13.22377 4.09508,15.70386 4.19385,16.08145 0.15277,0.58486 -0.98782,0.0802 -1.01447,-0.16615 -0.0266,-0.24641 -3.17939,-15.91526 -3.17939,-15.91526 z"
       id="path4730"
       inkscape:connector-curvature="0"
       sodipodi:nodetypes="cccc" />
    <path
       style="fill:#ffffff;fill-opacity:1;stroke:#000000;stroke-width:0.26458332px;stroke-linecap:butt;stroke-linejoin:miter;stroke-opacity:1"
       d="m 127.7463,129.14374 c -3.16717,1.72622 -2.67161,3.26595 -2.67161,3.26595 1.78415,-0.25138 2.33953,-1.65407 2.67161,-3.26595"
       id="path4537-3"
       inkscape:connector-curvature="0"
       sodipodi:nodetypes="ccc" />
    <path
       style="fill:#ffffff;fill-opacity:1;stroke:#000000;stroke-width:0.26458332px;stroke-linecap:butt;stroke-linejoin:miter;stroke-opacity:1"
       d="m 111.68405,152.86052 c -0.54821,-1.45553 -1.17156,-2.8971 -0.88204,-4.50813 0,0 1.15911,0.78106 1.46962,1.63375 0.31049,0.85269 -0.58758,2.87438 -0.58758,2.87438 z"
       id="path4539-0"
       inkscape:connector-curvature="0"
       sodipodi:nodetypes="ccsc" />
    <path
       style="fill:#ffffff;fill-opacity:1;stroke:#000000;stroke-width:0.26458332px;stroke-linecap:butt;stroke-linejoin:miter;stroke-opacity:1"
       d="m 112.67014,150.96138 c -1.10183,-2.5116 -1.0903,-5.00931 -0.41605,-5.79694 0,0 1.26381,1.12478 1.3951,2.21684 0.10682,0.88943 -0.97901,3.5801 -0.97901,3.5801 z"
       id="path4539-6-89"
       inkscape:connector-curvature="0"
       sodipodi:nodetypes="ccsc" />
    <path
       style="fill:#ffffff;fill-opacity:1;stroke:#000000;stroke-width:0.26458332px;stroke-linecap:butt;stroke-linejoin:miter;stroke-opacity:1"
       d="m 113.85137,147.2646 c -1.0843,-2.51485 -0.11011,-5.43171 0.55113,-6.21692 0,0 1.09145,1.94447 0.90602,3.00938 -0.38829,2.23016 -1.45715,3.20754 -1.45715,3.20754 z"
       id="path4539-6-8-7"
       inkscape:connector-curvature="0"
       sodipodi:nodetypes="ccsc" />
    <path
       style="fill:#ffffff;fill-opacity:1;stroke:#000000;stroke-width:0.26458332px;stroke-linecap:butt;stroke-linejoin:miter;stroke-opacity:1"
       d="m 115.4754,144.15967 c -0.75421,-3.2892 0.95083,-4.88025 1.58479,-5.60153 0,0 0.69821,1.72548 0.5128,2.79039 -0.3883,2.23016 -2.09759,2.81114 -2.09759,2.81114 z"
       id="path4539-6-8-1-4"
       inkscape:connector-curvature="0"
       sodipodi:nodetypes="ccsc" />
    <path
       style="fill:#ffffff;fill-opacity:1;stroke:#000000;stroke-width:0.26458332px;stroke-linecap:butt;stroke-linejoin:miter;stroke-opacity:1"
       d="m 117.65935,140.58804 c -0.7542,-3.2892 1.48106,-4.2401 2.11504,-4.96138 -0.0909,-0.37123 0.27179,1.78745 0.0864,2.85237 -0.38828,2.23015 -2.20142,2.10901 -2.20142,2.10901 z"
       id="path4539-6-8-1-2-74"
       inkscape:connector-curvature="0"
       sodipodi:nodetypes="ccsc" />
    <path
       style="fill:#ffffff;fill-opacity:1;stroke:#000000;stroke-width:0.26458332px;stroke-linecap:butt;stroke-linejoin:miter;stroke-opacity:1"
       d="m 120.11787,137.90061 c -0.75419,-3.2892 1.48106,-4.2401 2.11503,-4.96138 -0.0909,-0.37123 0.27179,1.78745 0.0864,2.85237 -0.3883,2.23015 -2.20143,2.10901 -2.20143,2.10901 z"
       id="path4539-6-8-1-2-7-6"
       inkscape:connector-curvature="0"
       sodipodi:nodetypes="ccsc" />
    <path
       style="fill:#ffffff;fill-opacity:1;stroke:#000000;stroke-width:0.26458332px;stroke-linecap:butt;stroke-linejoin:miter;stroke-opacity:1"
       d="m 122.36386,134.16876 c 1.00943,-3.25134 1.97848,-2.88891 2.54611,-3.61579 -0.0909,-0.37123 0.20434,1.16446 0.0189,2.22938 -0.38828,2.23016 -2.565,1.38641 -2.565,1.38641 z"
       id="path4539-6-8-1-2-7-1-1"
       inkscape:connector-curvature="0"
       sodipodi:nodetypes="ccsc" />
    <path
       style="fill:#ffffff;fill-opacity:1;stroke:#000000;stroke-width:0.26458332px;stroke-linecap:butt;stroke-linejoin:miter;stroke-opacity:1"
       d="m 125.5882,132.10966 c -2.79819,1.49906 -3.20329,1.82073 -3.10657,3.50127 1.78418,-0.25138 2.7745,-1.88939 3.10657,-3.50127"
       id="path4537-0-6"
       inkscape:connector-curvature="0"
       sodipodi:nodetypes="ccc" />
    <path
       style="fill:#ffffff;fill-opacity:1;stroke:#000000;stroke-width:0.26458332px;stroke-linecap:butt;stroke-linejoin:miter;stroke-opacity:1"
       d="m 123.23111,135.4022 c -3.2274,1.09165 -3.53847,1.50256 -3.10656,3.50127 1.78414,-0.25137 2.77449,-1.88938 3.10656,-3.50127"
       id="path4537-0-3-3"
       inkscape:connector-curvature="0"
       sodipodi:nodetypes="ccc" />
    <path
       style="fill:#ffffff;fill-opacity:1;stroke:#000000;stroke-width:0.26458332px;stroke-linecap:butt;stroke-linejoin:miter;stroke-opacity:1"
       d="m 120.52093,138.61169 c -2.19594,0.93298 -3.20976,1.452 -3.10659,3.50127 2.70212,0.56038 2.89096,-1.7864 3.10659,-3.50127"
       id="path4537-0-3-2-5"
       inkscape:connector-curvature="0"
       sodipodi:nodetypes="ccc" />
    <path
       style="fill:#ffffff;fill-opacity:1;stroke:#000000;stroke-width:0.26458332px;stroke-linecap:butt;stroke-linejoin:miter;stroke-opacity:1"
       d="m 118.90408,141.7415 c -1.95948,0.71294 -3.99569,1.9171 -4.01736,4.08255 3.44738,-0.51207 3.80788,-2.37653 4.01736,-4.08255"
       id="path4537-0-3-2-4-6"
       inkscape:connector-curvature="0"
       sodipodi:nodetypes="ccc" />
    <path
       style="fill:#ffffff;fill-opacity:1;stroke:#000000;stroke-width:0.26458332px;stroke-linecap:butt;stroke-linejoin:miter;stroke-opacity:1"
       d="m 117.44423,144.51778 c -1.95948,0.71294 -4.47721,2.93397 -4.49889,5.09943 3.25723,-1.28935 4.25575,-3.531 4.49889,-5.09943"
       id="path4537-0-3-2-4-0-6"
       inkscape:connector-curvature="0"
       sodipodi:nodetypes="ccc" />
    <path
       style="fill:#ffffff;fill-opacity:1;stroke:#000000;stroke-width:0.26458332px;stroke-linecap:butt;stroke-linejoin:miter;stroke-opacity:1"
       d="m 115.3139,148.54137 c -1.95949,0.71293 -2.95497,1.31169 -2.97664,3.47714 2.84044,-0.94352 2.52574,-1.73634 2.97664,-3.47714"
       id="path4537-0-3-2-4-0-0-3"
       inkscape:connector-curvature="0"
       sodipodi:nodetypes="ccc" />
    <path
       style="fill:#ffffff;fill-opacity:1;stroke:#000000;stroke-width:0.26458332px;stroke-linecap:butt;stroke-linejoin:miter;stroke-opacity:1"
       d="m 112.45887,150.40984 c -3.71962,13.32164 -3.89568,15.80915 -3.98962,16.18928 -0.14536,0.58878 0.98732,0.0596 1.01088,-0.18765 0.0237,-0.24729 2.97874,-16.00163 2.97874,-16.00163 z"
       id="path4730-0"
       inkscape:connector-curvature="0"
       sodipodi:nodetypes="cccc" />
  </g>
</svg>
